<svg xmlns="http://www.w3.org/2000/svg" width="1200" height="1200" viewBox="0 0 1200 1200">
<g transform="rotate(-24 600 600)"><g fill="#00CD87"><rect x="-150" y="-150" width="18" height="92"></rect><path d="M-150 -150 h18 L-80 -58 h-18 Z"></path><rect x="-98" y="-150" width="18" height="92"></rect></g><g fill="#9263FF"><rect x="0" y="-150" width="18" height="92"></rect><path d="M0 -150 h18 L70 -58 h-18 Z"></path><rect x="52" y="-150" width="18" height="92"></rect></g><g fill="#F9F367"><rect x="150" y="-150" width="18" height="92"></rect><path d="M150 -150 h18 L220 -58 h-18 Z"></path><rect x="202" y="-150" width="18" height="92"></rect></g><g fill="#E07A4A"><rect x="300" y="-150" width="18" height="92"></rect><path d="M300 -150 h18 L370 -58 h-18 Z"></path><rect x="352" y="-150" width="18" height="92"></rect></g><g fill="#00CD87"><rect x="450" y="-150" width="18" height="92"></rect><path d="M450 -150 h18 L520 -58 h-18 Z"></path><rect x="502" y="-150" width="18" height="92"></rect></g><g fill="#9263FF"><rect x="600" y="-150" width="18" height="92"></rect><path d="M600 -150 h18 L670 -58 h-18 Z"></path><rect x="652" y="-150" width="18" height="92"></rect></g><g fill="#F9F367"><rect x="750" y="-150" width="18" height="92"></rect><path d="M750 -150 h18 L820 -58 h-18 Z"></path><rect x="802" y="-150" width="18" height="92"></rect></g><g fill="#E07A4A"><rect x="900" y="-150" width="18" height="92"></rect><path d="M900 -150 h18 L970 -58 h-18 Z"></path><rect x="952" y="-150" width="18" height="92"></rect></g><g fill="#00CD87"><rect x="1050" y="-150" width="18" height="92"></rect><path d="M1050 -150 h18 L1120 -58 h-18 Z"></path><rect x="1102" y="-150" width="18" height="92"></rect></g><g fill="#9263FF"><rect x="1200" y="-150" width="18" height="92"></rect><path d="M1200 -150 h18 L1270 -58 h-18 Z"></path><rect x="1252" y="-150" width="18" height="92"></rect></g><g fill="#9263FF"><rect x="-75" y="0" width="18" height="92"></rect><path d="M-75 0 h18 L-5 92 h-18 Z"></path><rect x="-23" y="0" width="18" height="92"></rect></g><g fill="#F9F367"><rect x="75" y="0" width="18" height="92"></rect><path d="M75 0 h18 L145 92 h-18 Z"></path><rect x="127" y="0" width="18" height="92"></rect></g><g fill="#E07A4A"><rect x="225" y="0" width="18" height="92"></rect><path d="M225 0 h18 L295 92 h-18 Z"></path><rect x="277" y="0" width="18" height="92"></rect></g><g fill="#00CD87"><rect x="375" y="0" width="18" height="92"></rect><path d="M375 0 h18 L445 92 h-18 Z"></path><rect x="427" y="0" width="18" height="92"></rect></g><g fill="#9263FF"><rect x="525" y="0" width="18" height="92"></rect><path d="M525 0 h18 L595 92 h-18 Z"></path><rect x="577" y="0" width="18" height="92"></rect></g><g fill="#F9F367"><rect x="675" y="0" width="18" height="92"></rect><path d="M675 0 h18 L745 92 h-18 Z"></path><rect x="727" y="0" width="18" height="92"></rect></g><g fill="#E07A4A"><rect x="825" y="0" width="18" height="92"></rect><path d="M825 0 h18 L895 92 h-18 Z"></path><rect x="877" y="0" width="18" height="92"></rect></g><g fill="#00CD87"><rect x="975" y="0" width="18" height="92"></rect><path d="M975 0 h18 L1045 92 h-18 Z"></path><rect x="1027" y="0" width="18" height="92"></rect></g><g fill="#9263FF"><rect x="1125" y="0" width="18" height="92"></rect><path d="M1125 0 h18 L1195 92 h-18 Z"></path><rect x="1177" y="0" width="18" height="92"></rect></g><g fill="#F9F367"><rect x="1275" y="0" width="18" height="92"></rect><path d="M1275 0 h18 L1345 92 h-18 Z"></path><rect x="1327" y="0" width="18" height="92"></rect></g><g fill="#F9F367"><rect x="-150" y="150" width="18" height="92"></rect><path d="M-150 150 h18 L-80 242 h-18 Z"></path><rect x="-98" y="150" width="18" height="92"></rect></g><g fill="#E07A4A"><rect x="0" y="150" width="18" height="92"></rect><path d="M0 150 h18 L70 242 h-18 Z"></path><rect x="52" y="150" width="18" height="92"></rect></g><g fill="#00CD87"><rect x="150" y="150" width="18" height="92"></rect><path d="M150 150 h18 L220 242 h-18 Z"></path><rect x="202" y="150" width="18" height="92"></rect></g><g fill="#9263FF"><rect x="300" y="150" width="18" height="92"></rect><path d="M300 150 h18 L370 242 h-18 Z"></path><rect x="352" y="150" width="18" height="92"></rect></g><g fill="#F9F367"><rect x="450" y="150" width="18" height="92"></rect><path d="M450 150 h18 L520 242 h-18 Z"></path><rect x="502" y="150" width="18" height="92"></rect></g><g fill="#E07A4A"><rect x="600" y="150" width="18" height="92"></rect><path d="M600 150 h18 L670 242 h-18 Z"></path><rect x="652" y="150" width="18" height="92"></rect></g><g fill="#00CD87"><rect x="750" y="150" width="18" height="92"></rect><path d="M750 150 h18 L820 242 h-18 Z"></path><rect x="802" y="150" width="18" height="92"></rect></g><g fill="#9263FF"><rect x="900" y="150" width="18" height="92"></rect><path d="M900 150 h18 L970 242 h-18 Z"></path><rect x="952" y="150" width="18" height="92"></rect></g><g fill="#F9F367"><rect x="1050" y="150" width="18" height="92"></rect><path d="M1050 150 h18 L1120 242 h-18 Z"></path><rect x="1102" y="150" width="18" height="92"></rect></g><g fill="#E07A4A"><rect x="1200" y="150" width="18" height="92"></rect><path d="M1200 150 h18 L1270 242 h-18 Z"></path><rect x="1252" y="150" width="18" height="92"></rect></g><g fill="#E07A4A"><rect x="-75" y="300" width="18" height="92"></rect><path d="M-75 300 h18 L-5 392 h-18 Z"></path><rect x="-23" y="300" width="18" height="92"></rect></g><g fill="#00CD87"><rect x="75" y="300" width="18" height="92"></rect><path d="M75 300 h18 L145 392 h-18 Z"></path><rect x="127" y="300" width="18" height="92"></rect></g><g fill="#9263FF"><rect x="225" y="300" width="18" height="92"></rect><path d="M225 300 h18 L295 392 h-18 Z"></path><rect x="277" y="300" width="18" height="92"></rect></g><g fill="#F9F367"><rect x="375" y="300" width="18" height="92"></rect><path d="M375 300 h18 L445 392 h-18 Z"></path><rect x="427" y="300" width="18" height="92"></rect></g><g fill="#E07A4A"><rect x="525" y="300" width="18" height="92"></rect><path d="M525 300 h18 L595 392 h-18 Z"></path><rect x="577" y="300" width="18" height="92"></rect></g><g fill="#00CD87"><rect x="675" y="300" width="18" height="92"></rect><path d="M675 300 h18 L745 392 h-18 Z"></path><rect x="727" y="300" width="18" height="92"></rect></g><g fill="#9263FF"><rect x="825" y="300" width="18" height="92"></rect><path d="M825 300 h18 L895 392 h-18 Z"></path><rect x="877" y="300" width="18" height="92"></rect></g><g fill="#F9F367"><rect x="975" y="300" width="18" height="92"></rect><path d="M975 300 h18 L1045 392 h-18 Z"></path><rect x="1027" y="300" width="18" height="92"></rect></g><g fill="#E07A4A"><rect x="1125" y="300" width="18" height="92"></rect><path d="M1125 300 h18 L1195 392 h-18 Z"></path><rect x="1177" y="300" width="18" height="92"></rect></g><g fill="#00CD87"><rect x="1275" y="300" width="18" height="92"></rect><path d="M1275 300 h18 L1345 392 h-18 Z"></path><rect x="1327" y="300" width="18" height="92"></rect></g><g fill="#00CD87"><rect x="-150" y="450" width="18" height="92"></rect><path d="M-150 450 h18 L-80 542 h-18 Z"></path><rect x="-98" y="450" width="18" height="92"></rect></g><g fill="#9263FF"><rect x="0" y="450" width="18" height="92"></rect><path d="M0 450 h18 L70 542 h-18 Z"></path><rect x="52" y="450" width="18" height="92"></rect></g><g fill="#F9F367"><rect x="150" y="450" width="18" height="92"></rect><path d="M150 450 h18 L220 542 h-18 Z"></path><rect x="202" y="450" width="18" height="92"></rect></g><g fill="#E07A4A"><rect x="300" y="450" width="18" height="92"></rect><path d="M300 450 h18 L370 542 h-18 Z"></path><rect x="352" y="450" width="18" height="92"></rect></g><g fill="#00CD87"><rect x="450" y="450" width="18" height="92"></rect><path d="M450 450 h18 L520 542 h-18 Z"></path><rect x="502" y="450" width="18" height="92"></rect></g><g fill="#9263FF"><rect x="600" y="450" width="18" height="92"></rect><path d="M600 450 h18 L670 542 h-18 Z"></path><rect x="652" y="450" width="18" height="92"></rect></g><g fill="#F9F367"><rect x="750" y="450" width="18" height="92"></rect><path d="M750 450 h18 L820 542 h-18 Z"></path><rect x="802" y="450" width="18" height="92"></rect></g><g fill="#E07A4A"><rect x="900" y="450" width="18" height="92"></rect><path d="M900 450 h18 L970 542 h-18 Z"></path><rect x="952" y="450" width="18" height="92"></rect></g><g fill="#00CD87"><rect x="1050" y="450" width="18" height="92"></rect><path d="M1050 450 h18 L1120 542 h-18 Z"></path><rect x="1102" y="450" width="18" height="92"></rect></g><g fill="#9263FF"><rect x="1200" y="450" width="18" height="92"></rect><path d="M1200 450 h18 L1270 542 h-18 Z"></path><rect x="1252" y="450" width="18" height="92"></rect></g><g fill="#9263FF"><rect x="-75" y="600" width="18" height="92"></rect><path d="M-75 600 h18 L-5 692 h-18 Z"></path><rect x="-23" y="600" width="18" height="92"></rect></g><g fill="#F9F367"><rect x="75" y="600" width="18" height="92"></rect><path d="M75 600 h18 L145 692 h-18 Z"></path><rect x="127" y="600" width="18" height="92"></rect></g><g fill="#E07A4A"><rect x="225" y="600" width="18" height="92"></rect><path d="M225 600 h18 L295 692 h-18 Z"></path><rect x="277" y="600" width="18" height="92"></rect></g><g fill="#00CD87"><rect x="375" y="600" width="18" height="92"></rect><path d="M375 600 h18 L445 692 h-18 Z"></path><rect x="427" y="600" width="18" height="92"></rect></g><g fill="#9263FF"><rect x="525" y="600" width="18" height="92"></rect><path d="M525 600 h18 L595 692 h-18 Z"></path><rect x="577" y="600" width="18" height="92"></rect></g><g fill="#F9F367"><rect x="675" y="600" width="18" height="92"></rect><path d="M675 600 h18 L745 692 h-18 Z"></path><rect x="727" y="600" width="18" height="92"></rect></g><g fill="#E07A4A"><rect x="825" y="600" width="18" height="92"></rect><path d="M825 600 h18 L895 692 h-18 Z"></path><rect x="877" y="600" width="18" height="92"></rect></g><g fill="#00CD87"><rect x="975" y="600" width="18" height="92"></rect><path d="M975 600 h18 L1045 692 h-18 Z"></path><rect x="1027" y="600" width="18" height="92"></rect></g><g fill="#9263FF"><rect x="1125" y="600" width="18" height="92"></rect><path d="M1125 600 h18 L1195 692 h-18 Z"></path><rect x="1177" y="600" width="18" height="92"></rect></g><g fill="#F9F367"><rect x="1275" y="600" width="18" height="92"></rect><path d="M1275 600 h18 L1345 692 h-18 Z"></path><rect x="1327" y="600" width="18" height="92"></rect></g><g fill="#F9F367"><rect x="-150" y="750" width="18" height="92"></rect><path d="M-150 750 h18 L-80 842 h-18 Z"></path><rect x="-98" y="750" width="18" height="92"></rect></g><g fill="#E07A4A"><rect x="0" y="750" width="18" height="92"></rect><path d="M0 750 h18 L70 842 h-18 Z"></path><rect x="52" y="750" width="18" height="92"></rect></g><g fill="#00CD87"><rect x="150" y="750" width="18" height="92"></rect><path d="M150 750 h18 L220 842 h-18 Z"></path><rect x="202" y="750" width="18" height="92"></rect></g><g fill="#9263FF"><rect x="300" y="750" width="18" height="92"></rect><path d="M300 750 h18 L370 842 h-18 Z"></path><rect x="352" y="750" width="18" height="92"></rect></g><g fill="#F9F367"><rect x="450" y="750" width="18" height="92"></rect><path d="M450 750 h18 L520 842 h-18 Z"></path><rect x="502" y="750" width="18" height="92"></rect></g><g fill="#E07A4A"><rect x="600" y="750" width="18" height="92"></rect><path d="M600 750 h18 L670 842 h-18 Z"></path><rect x="652" y="750" width="18" height="92"></rect></g><g fill="#00CD87"><rect x="750" y="750" width="18" height="92"></rect><path d="M750 750 h18 L820 842 h-18 Z"></path><rect x="802" y="750" width="18" height="92"></rect></g><g fill="#9263FF"><rect x="900" y="750" width="18" height="92"></rect><path d="M900 750 h18 L970 842 h-18 Z"></path><rect x="952" y="750" width="18" height="92"></rect></g><g fill="#F9F367"><rect x="1050" y="750" width="18" height="92"></rect><path d="M1050 750 h18 L1120 842 h-18 Z"></path><rect x="1102" y="750" width="18" height="92"></rect></g><g fill="#E07A4A"><rect x="1200" y="750" width="18" height="92"></rect><path d="M1200 750 h18 L1270 842 h-18 Z"></path><rect x="1252" y="750" width="18" height="92"></rect></g><g fill="#E07A4A"><rect x="-75" y="900" width="18" height="92"></rect><path d="M-75 900 h18 L-5 992 h-18 Z"></path><rect x="-23" y="900" width="18" height="92"></rect></g><g fill="#00CD87"><rect x="75" y="900" width="18" height="92"></rect><path d="M75 900 h18 L145 992 h-18 Z"></path><rect x="127" y="900" width="18" height="92"></rect></g><g fill="#9263FF"><rect x="225" y="900" width="18" height="92"></rect><path d="M225 900 h18 L295 992 h-18 Z"></path><rect x="277" y="900" width="18" height="92"></rect></g><g fill="#F9F367"><rect x="375" y="900" width="18" height="92"></rect><path d="M375 900 h18 L445 992 h-18 Z"></path><rect x="427" y="900" width="18" height="92"></rect></g><g fill="#E07A4A"><rect x="525" y="900" width="18" height="92"></rect><path d="M525 900 h18 L595 992 h-18 Z"></path><rect x="577" y="900" width="18" height="92"></rect></g><g fill="#00CD87"><rect x="675" y="900" width="18" height="92"></rect><path d="M675 900 h18 L745 992 h-18 Z"></path><rect x="727" y="900" width="18" height="92"></rect></g><g fill="#9263FF"><rect x="825" y="900" width="18" height="92"></rect><path d="M825 900 h18 L895 992 h-18 Z"></path><rect x="877" y="900" width="18" height="92"></rect></g><g fill="#F9F367"><rect x="975" y="900" width="18" height="92"></rect><path d="M975 900 h18 L1045 992 h-18 Z"></path><rect x="1027" y="900" width="18" height="92"></rect></g><g fill="#E07A4A"><rect x="1125" y="900" width="18" height="92"></rect><path d="M1125 900 h18 L1195 992 h-18 Z"></path><rect x="1177" y="900" width="18" height="92"></rect></g><g fill="#00CD87"><rect x="1275" y="900" width="18" height="92"></rect><path d="M1275 900 h18 L1345 992 h-18 Z"></path><rect x="1327" y="900" width="18" height="92"></rect></g><g fill="#00CD87"><rect x="-150" y="1050" width="18" height="92"></rect><path d="M-150 1050 h18 L-80 1142 h-18 Z"></path><rect x="-98" y="1050" width="18" height="92"></rect></g><g fill="#9263FF"><rect x="0" y="1050" width="18" height="92"></rect><path d="M0 1050 h18 L70 1142 h-18 Z"></path><rect x="52" y="1050" width="18" height="92"></rect></g><g fill="#F9F367"><rect x="150" y="1050" width="18" height="92"></rect><path d="M150 1050 h18 L220 1142 h-18 Z"></path><rect x="202" y="1050" width="18" height="92"></rect></g><g fill="#E07A4A"><rect x="300" y="1050" width="18" height="92"></rect><path d="M300 1050 h18 L370 1142 h-18 Z"></path><rect x="352" y="1050" width="18" height="92"></rect></g><g fill="#00CD87"><rect x="450" y="1050" width="18" height="92"></rect><path d="M450 1050 h18 L520 1142 h-18 Z"></path><rect x="502" y="1050" width="18" height="92"></rect></g><g fill="#9263FF"><rect x="600" y="1050" width="18" height="92"></rect><path d="M600 1050 h18 L670 1142 h-18 Z"></path><rect x="652" y="1050" width="18" height="92"></rect></g><g fill="#F9F367"><rect x="750" y="1050" width="18" height="92"></rect><path d="M750 1050 h18 L820 1142 h-18 Z"></path><rect x="802" y="1050" width="18" height="92"></rect></g><g fill="#E07A4A"><rect x="900" y="1050" width="18" height="92"></rect><path d="M900 1050 h18 L970 1142 h-18 Z"></path><rect x="952" y="1050" width="18" height="92"></rect></g><g fill="#00CD87"><rect x="1050" y="1050" width="18" height="92"></rect><path d="M1050 1050 h18 L1120 1142 h-18 Z"></path><rect x="1102" y="1050" width="18" height="92"></rect></g><g fill="#9263FF"><rect x="1200" y="1050" width="18" height="92"></rect><path d="M1200 1050 h18 L1270 1142 h-18 Z"></path><rect x="1252" y="1050" width="18" height="92"></rect></g><g fill="#9263FF"><rect x="-75" y="1200" width="18" height="92"></rect><path d="M-75 1200 h18 L-5 1292 h-18 Z"></path><rect x="-23" y="1200" width="18" height="92"></rect></g><g fill="#F9F367"><rect x="75" y="1200" width="18" height="92"></rect><path d="M75 1200 h18 L145 1292 h-18 Z"></path><rect x="127" y="1200" width="18" height="92"></rect></g><g fill="#E07A4A"><rect x="225" y="1200" width="18" height="92"></rect><path d="M225 1200 h18 L295 1292 h-18 Z"></path><rect x="277" y="1200" width="18" height="92"></rect></g><g fill="#00CD87"><rect x="375" y="1200" width="18" height="92"></rect><path d="M375 1200 h18 L445 1292 h-18 Z"></path><rect x="427" y="1200" width="18" height="92"></rect></g><g fill="#9263FF"><rect x="525" y="1200" width="18" height="92"></rect><path d="M525 1200 h18 L595 1292 h-18 Z"></path><rect x="577" y="1200" width="18" height="92"></rect></g><g fill="#F9F367"><rect x="675" y="1200" width="18" height="92"></rect><path d="M675 1200 h18 L745 1292 h-18 Z"></path><rect x="727" y="1200" width="18" height="92"></rect></g><g fill="#E07A4A"><rect x="825" y="1200" width="18" height="92"></rect><path d="M825 1200 h18 L895 1292 h-18 Z"></path><rect x="877" y="1200" width="18" height="92"></rect></g><g fill="#00CD87"><rect x="975" y="1200" width="18" height="92"></rect><path d="M975 1200 h18 L1045 1292 h-18 Z"></path><rect x="1027" y="1200" width="18" height="92"></rect></g><g fill="#9263FF"><rect x="1125" y="1200" width="18" height="92"></rect><path d="M1125 1200 h18 L1195 1292 h-18 Z"></path><rect x="1177" y="1200" width="18" height="92"></rect></g><g fill="#F9F367"><rect x="1275" y="1200" width="18" height="92"></rect><path d="M1275 1200 h18 L1345 1292 h-18 Z"></path><rect x="1327" y="1200" width="18" height="92"></rect></g></g>
</svg>